<svg width="31" height="32" viewBox="0 0 31 32" fill="none" xmlns="http://www.w3.org/2000/svg">
<path d="M29.3262 11.778L26.4912 10.7952L27.8262 8.0184C27.9615 7.72775 28.0068 7.40059 27.9557 7.08205C27.9047 6.76351 27.7598 6.4693 27.5412 6.24L24.3462 2.9172C24.1245 2.68646 23.8389 2.53377 23.5295 2.4806C23.2201 2.42743 22.9024 2.47647 22.6212 2.6208L19.9512 4.0092L19.0062 1.0608C18.9064 0.753473 18.7169 0.486141 18.4642 0.296012C18.2115 0.105883 17.9081 0.00241437 17.5962 5.20031e-06H13.0962C12.7817 -0.000839012 12.475 0.101123 12.2192 0.291479C11.9635 0.481834 11.7718 0.750956 11.6712 1.0608L10.7262 4.0092L8.05619 2.6208C7.77672 2.48006 7.46214 2.43299 7.15585 2.48608C6.84956 2.53917 6.56667 2.6898 6.34619 2.9172L3.1512 6.24C2.92932 6.47052 2.78251 6.76756 2.73138 7.08935C2.68026 7.41115 2.72741 7.74152 2.8662 8.034L4.2012 10.8108L1.3662 11.7936C1.07068 11.8974 0.813635 12.0944 0.630818 12.3572C0.448002 12.6201 0.348513 12.9356 0.346196 13.26V17.94C0.345385 18.267 0.443425 18.5861 0.626459 18.852C0.809494 19.118 1.06826 19.3173 1.3662 19.422L4.2012 20.4048L2.8662 23.1816C2.73087 23.4722 2.6856 23.7994 2.73665 24.118C2.7877 24.4365 2.93254 24.7307 3.1512 24.96L6.34619 28.2828C6.56784 28.5135 6.85346 28.6662 7.16288 28.7194C7.4723 28.7726 7.78996 28.7235 8.07119 28.5792L10.7412 27.1908L11.6862 30.1392C11.7868 30.449 11.9785 30.7182 12.2342 30.9085C12.49 31.0989 12.7967 31.2008 13.1112 31.2H17.6112C17.9257 31.2008 18.2324 31.0989 18.4881 30.9085C18.7438 30.7182 18.9356 30.449 19.0362 30.1392L19.9812 27.1908L22.6512 28.5792C22.9289 28.7164 23.2404 28.7615 23.5436 28.7085C23.8467 28.6555 24.1269 28.5069 24.3462 28.2828L27.5412 24.96C27.7631 24.7295 27.9099 24.4324 27.961 24.1106C28.0121 23.7889 27.965 23.4585 27.8262 23.166L26.4912 20.3892L29.3262 19.4064C29.6217 19.3026 29.8787 19.1056 30.0616 18.8428C30.2444 18.5799 30.3439 18.2644 30.3462 17.94V13.26C30.347 12.933 30.249 12.6139 30.0659 12.348C29.8829 12.082 29.6241 11.8827 29.3262 11.778ZM27.3462 16.8168L25.5462 17.4408C25.1323 17.5804 24.7525 17.812 24.4333 18.1196C24.114 18.4271 23.8629 18.8031 23.6974 19.2217C23.5318 19.6402 23.4558 20.0912 23.4746 20.5433C23.4934 20.9954 23.6065 21.4379 23.8062 21.84L24.6612 23.6184L23.0112 25.3344L21.3462 24.3984C20.9615 24.1991 20.5402 24.0881 20.1107 24.0728C19.6811 24.0576 19.2535 24.1385 18.8567 24.3101C18.4598 24.4817 18.1031 24.7399 17.8106 25.0674C17.5181 25.3948 17.2966 25.7838 17.1612 26.208L16.5612 28.08H14.1762L13.5762 26.208C13.4419 25.7775 13.2192 25.3826 12.9235 25.0506C12.6279 24.7185 12.2663 24.4574 11.8638 24.2852C11.4614 24.1131 11.0278 24.034 10.593 24.0536C10.1583 24.0731 9.73284 24.1908 9.34619 24.3984L7.63619 25.2876L5.9862 23.5716L6.88619 21.84C7.08583 21.4379 7.19897 20.9954 7.21776 20.5433C7.23655 20.0912 7.16054 19.6402 6.995 19.2217C6.82946 18.8031 6.57836 18.4271 6.25911 18.1196C5.93986 17.812 5.56011 17.5804 5.14619 17.4408L3.3462 16.8168V14.3832L5.14619 13.7592C5.56011 13.6196 5.93986 13.388 6.25911 13.0804C6.57836 12.7729 6.82946 12.3969 6.995 11.9783C7.16054 11.5598 7.23655 11.1088 7.21776 10.6567C7.19897 10.2046 7.08583 9.76211 6.88619 9.36L6.03119 7.6284L7.68119 5.9124L9.34619 6.8016C9.73284 7.00923 10.1583 7.12689 10.593 7.14643C11.0278 7.16597 11.4614 7.08692 11.8638 6.91476C12.2663 6.7426 12.6279 6.48146 12.9235 6.14944C13.2192 5.81742 13.4419 5.42247 13.5762 4.992L14.1762 3.12H16.5162L17.1162 4.992C17.2505 5.42247 17.4732 5.81742 17.7688 6.14944C18.0645 6.48146 18.4261 6.7426 18.8286 6.91476C19.231 7.08692 19.6646 7.16597 20.0994 7.14643C20.5341 7.12689 20.9595 7.00923 21.3462 6.8016L23.0562 5.9124L24.7062 7.6284L23.8062 9.36C23.6145 9.76005 23.5078 10.1983 23.4931 10.645C23.4785 11.0916 23.5563 11.5364 23.7213 11.9491C23.8863 12.3618 24.1346 12.7328 24.4494 13.037C24.7643 13.3413 25.1383 13.5716 25.5462 13.7124L27.3462 14.3364V16.8168ZM15.3462 9.36C14.1595 9.36 12.9995 9.72597 12.0128 10.4116C11.0261 11.0973 10.257 12.0718 9.80292 13.2121C9.34879 14.3523 9.22997 15.6069 9.46148 16.8174C9.69299 18.0278 10.2644 19.1397 11.1036 20.0123C11.9427 20.885 13.0118 21.4793 14.1756 21.7201C15.3395 21.9609 16.5459 21.8373 17.6423 21.365C18.7386 20.8927 19.6757 20.0929 20.335 19.0668C20.9943 18.0406 21.3462 16.8342 21.3462 15.6C21.3462 13.945 20.714 12.3579 19.5888 11.1877C18.4636 10.0174 16.9375 9.36 15.3462 9.36ZM15.3462 18.72C14.7528 18.72 14.1728 18.537 13.6795 18.1942C13.1861 17.8514 12.8016 17.3641 12.5746 16.794C12.3475 16.2239 12.2881 15.5965 12.4038 14.9913C12.5196 14.3861 12.8053 13.8302 13.2249 13.3938C13.6444 12.9575 14.179 12.6603 14.7609 12.5399C15.3429 12.4196 15.9461 12.4813 16.4942 12.7175C17.0424 12.9536 17.511 13.3535 17.8406 13.8666C18.1702 14.3797 18.3462 14.9829 18.3462 15.6C18.3462 16.4275 18.0301 17.2211 17.4675 17.8062C16.9049 18.3913 16.1418 18.72 15.3462 18.72Z" fill="black"/>
</svg>
